HIERARCHY
ROOT HipCenter
{
    OFFSET 0.0 0.0 -0.0
    CHANNELS 6 Xposition Yposition Zposition Zrotation Xrotation Yrotation
    JOINT Spine
    {
        OFFSET 0.0 30.009742736816406 0.0
        CHANNELS 3 Zrotation Xrotation Yrotation
        JOINT ShoulderCenter
        {
            OFFSET 0.0 22.634822845458984 0.0
            CHANNELS 3 Zrotation Xrotation Yrotation
            JOINT LeftShoulder
            {
                OFFSET 17.78877830505371 0.0 0.0
                CHANNELS 3 Zrotation Xrotation Yrotation
                JOINT LeftElbow
                {
                    OFFSET 22.883365631103516 0.0 0.0
                    CHANNELS 3 Zrotation Xrotation Yrotation
                    JOINT LeftWrist
                    {
                        OFFSET 23.07186508178711 0.0 0.0
                        CHANNELS 3 Zrotation Xrotation Yrotation
                        JOINT LeftHand
                        {
                            OFFSET 7.509000301361084 0.0 0.0
                            CHANNELS 3 Zrotation Xrotation Yrotation
                            End Site
                            {
                                OFFSET 3.0036001205444336 0.0 0.0
                            }
                        }
                    }
                }
            }
            JOINT RightShoulder
            {
                OFFSET -17.78877830505371 0.0 0.0
                CHANNELS 3 Zrotation Xrotation Yrotation
                JOINT RightElbow
                {
                    OFFSET -22.883365631103516 0.0 0.0
                    CHANNELS 3 Zrotation Xrotation Yrotation
                    JOINT RightWrist
                    {
                        OFFSET -23.07186508178711 0.0 0.0
                        CHANNELS 3 Zrotation Xrotation Yrotation
                        JOINT RightHand
                        {
                            OFFSET -7.509000301361084 0.0 0.0
                            CHANNELS 3 Zrotation Xrotation Yrotation
                            End Site
                            {
                                OFFSET -3.0036001205444336 0.0 0.0
                            }
                        }
                    }
                }
            }
            End Site
            {
                OFFSET 0.0 9.053929328918457 0.0
            }
        }
    }
    JOINT LeftHip
    {
        OFFSET 8.695545196533203 0.0 0.0
        CHANNELS 3 Zrotation Xrotation Yrotation
        JOINT LeftKnee
        {
            OFFSET 0.0 -28.689739227294922 0.0
            CHANNELS 3 Zrotation Xrotation Yrotation
            JOINT LeftAnkle
            {
                OFFSET 0.0 -25.37734603881836 0.0
                CHANNELS 3 Zrotation Xrotation Yrotation
                JOINT LeftFoot
                {
                    OFFSET 0.0 -11.288888931274414 0.0
                    CHANNELS 3 Zrotation Xrotation Yrotation
                    End Site
                    {
                        OFFSET 0.0 0.0 4.515555381774902
                    }
                }
            }
        }
    }
    JOINT RightHip
    {
        OFFSET -8.695545196533203 0.0 0.0
        CHANNELS 3 Zrotation Xrotation Yrotation
        JOINT RightKnee
        {
            OFFSET 0.0 -28.689739227294922 0.0
            CHANNELS 3 Zrotation Xrotation Yrotation
            JOINT RightAnkle
            {
                OFFSET 0.0 -25.37734603881836 0.0
                CHANNELS 3 Zrotation Xrotation Yrotation
                JOINT RightFoot
                {
                    OFFSET 0.0 -11.288888931274414 0.0
                    CHANNELS 3 Zrotation Xrotation Yrotation
                    End Site
                    {
                        OFFSET 0.0 0.0 4.515555381774902
                    }
                }
            }
        }
    }
}
MOTION
Frames: 7
Frame Time: 0.03333333333333333
-10.684590339660645 -4.437386989593506 -382.0195007324219 -1.6434192453248957 13.019337471127857 163.27079714898534 0.30908624783907 -2.0700310533111628 -0.0013154628224113952 9.366353252635087e-08 9.163839361462153e-07 -4.973486412991948 -86.41217661966407 -28.391205912435318 4.665954935776035 -7.698633463445173e-06 1.2686359657162777e-06 20.884845783168114 179.9999946727885 -55.573283364948075 -172.89649787991257 8.827812596100317e-32 3.1805546814635168e-15 -3.1805546814635168e-15 77.73146264063661 -36.13992389967225 -6.9849023814521045 6.837107489833285e-06 2.0195398273556544e-06 -20.810564968126123 -5.652633418798096e-06 -47.73710879939957 -17.155504708849797 0.0 -4.770832022195274e-15 0.0 2.4523880433994556 4.246610235799517 27.283419974431876 -3.3168138888525083 -6.454804569010533 -0.7046132143852192 61.66753271232057 62.79328940285406 -52.26664843138994 9.93923337957349e-16 -6.3611093629270335e-15 5.517382872562698e-32 -10.297159243432036 -12.162392064411812 -21.457858416187893 12.017859768360081 -5.797123218221081 1.2090010157296904 -33.587626361228764 36.620855704216126 13.450301186442042 -7.951386703658791e-16 1.5902773407317584e-15 -8.94531004161614e-15
-11.014589309692383 -4.415744304656982 -381.7146911621094 -0.819839559762149 13.62020301786508 162.45541938102252 0.38432109248984975 -2.006848337351676 0.04325181015096132 -1.4757194995557455e-07 -2.2593579122471565e-07 -3.591555477229808 -85.93830155543526 -29.167403774420126 3.64787834769284 -3.1722492692129998e-06 1.9046369597182825e-07 20.512787168329073 179.99999846219666 -66.2522424303856 -174.2707920462485 -6.3611093629270335e-15 0.0 0.0 78.53586323284699 -35.543553122284514 -5.597253086431115 4.422016916969947e-06 3.20969318622452e-06 -21.915704309604113 -179.99998973601913 -87.5729244097312 145.71912710899778 0.0 3.975693351829396e-16 0.0 2.9410413855076425 4.835547310124575 27.782124771401932 -3.455242201945044 -6.4927518992111795 -0.5835704749368494 61.56720673971769 63.38581542224076 -53.4377933794601 -1.1927080055488188e-15 0.0 0.0 -12.433606964217724 -8.398392106726703 -21.68275387097269 16.824874013247964 -7.827159229980959 2.0577689372895063 -109.37780935363166 69.55464705491389 95.05580374513296 1.5902773407317584e-15 6.3611093629270335e-15 3.975693351829395e-16
-11.212129592895508 -4.420405864715576 -381.42828369140625 -0.1354052267802994 13.937090974221624 163.80079956193845 0.2514174510894136 -1.981061810774872 0.04376760896142073 4.942269276656645e-07 3.1680349843506536e-07 -4.784848853278994 -84.12986213602113 -33.37297029510243 3.197944831939108 5.065729857084696e-06 3.188361022632697e-06 21.819774716058376 179.99999442221502 27.073354512188804 -174.07998007882532 -6.3611093629270335e-15 -3.1805546814635168e-15 -1.7655625192200634e-31 79.04512323934692 -38.69247741028443 -5.173771548898492 -1.290299906314267e-06 -3.1976092872458234e-06 -18.960156414473925 -3.546277153922094e-06 -63.213654141831235 -20.16789898396419 0.0 0.0 0.0 4.117701900824543 4.769706699615551 27.90116887356447 -4.373412064471571 -6.010013370654845 -0.49836868406968604 63.726371033765616 62.08584338549695 -55.788874789122154 -3.677516350442191e-15 5.103579157120495e-32 -1.5902773407317584e-15 -12.224023791023505 -7.372340880976873 -22.07945577037954 15.128328838355566 -8.30128237922416 1.9234293192227379 -108.0370215516446 70.39206882572864 95.39337447259926 -3.180554681463516e-15 6.361109362927033e-15 -4.770832022195274e-15
-11.26729965209961 -4.43705415725708 -381.1068115234375 0.01536108508488292 13.984068100778098 165.00618679773424 0.296295154284299 -1.8978164832501383 0.046788437075023365 6.079261169041166e-08 -4.214580476480973e-07 -4.4712161470191205 -84.2710010116491 -17.438302613549226 0.6376757668286748 2.154533693749076e-06 3.5895481465448066e-06 16.317198058573045 1.1603029932894166e-06 -49.71094908121284 10.166041907126985 0.0 0.0 3.1805546814635164e-15 79.80114393359975 -35.732647828827346 -4.92133162197667 5.452770125417924e-06 1.2330548854848406e-06 -18.228598436986925 3.868935714566949e-06 -64.35945186243273 -14.237400562611507 0.0 0.0 -3.1805546814635168e-15 4.173453802450984 4.22067364577644 27.783055326056537 -4.257800106582962 -4.990410592119131 -0.40044842114485907 63.35392054693523 61.88368472273808 -55.50108315574657 5.963540027744094e-16 8.276074308844047e-33 1.5902773407317584e-15 -12.41598685596261 -7.098809274751168 -22.346276894301727 11.108856427863909 -6.26749874543472 0.9785316160674492 -40.9292796082406 38.772428836566256 21.439491744833987 -7.95138670365879e-16 -3.1805546814635164e-15 2.7829853462805768e-15
-11.26688003540039 -4.437692642211914 -381.0492858886719 0.15004256833382598 14.059872921903086 165.0148769754714 0.27439382405766405 -1.922320810776779 0.049316456762181146 3.8185344438786554e-07 -1.1811937316333245e-06 -4.082757419606469 -83.83740585123687 -20.37736201143034 0.27429519321865764 -8.439871391061794e-07 9.098185496828371e-07 15.644318918607686 179.9999919038898 -68.52545300893219 -175.72019931626963 -6.3611093629270335e-15 -1.7655625192200634e-31 3.1805546814635168e-15 80.66326537452856 -31.285731980315262 -3.8218143965210207 8.806653659398227e-06 1.2807434385484957e-06 -18.913787352921613 -0.0021057005207867703 -89.86208330308249 -14.986024336422153 0.0 0.0 -3.1805546814635168e-15 4.160427350952328 4.482570071081036 27.728277030615917 -4.138053274621049 -6.061738260701021 -0.45781796013461595 64.37249597873706 62.628292194913044 -57.04391772723615 7.951386703658792e-16 -6.3611093629270335e-15 4.4139062980501586e-32 -12.278295107557765 -7.051475029639607 -22.256025871432083 10.188020744539429 -5.260104437953878 0.7535073881964298 -34.893000921968905 35.83256562198457 16.449280511986643 1.5902773407317582e-15 -3.862168010793889e-32 -2.7829853462805768e-15
-11.272109985351562 -4.510068893432617 -381.0071105957031 0.1991440442592048 14.180358825833148 165.58206483592227 0.29998947014365207 -1.9263811412968859 0.05183109170072416 1.627583237859566e-09 -4.0901110135972934e-07 -3.8568326071641486 -83.55778224769021 -22.96272649585442 -0.6555671689663027 -5.87659373084032e-07 3.459968956362077e-07 15.31072285432318 -1.3009139868955722e-06 -33.37081338773124 2.9238701043607103 3.975693351829396e-15 -1.1034765745125397e-31 -3.1805546814635168e-15 80.43626161478238 -27.345119884421187 -3.597533021326597 -3.55547564342824e-06 -3.061276262904383e-06 -17.31967912845306 -2.6731204603806125e-06 -50.61423580439307 -15.435951922195384 0.0 -6.361109362927032e-15 0.0 4.244641247941699 4.326865189945878 27.73228350020708 -4.371481338589276 -5.89272609355672 -0.46335607684387914 64.89812595724649 62.62504773163259 -57.41125798604954 -1.1927080055488188e-15 -6.3611093629270335e-15 -6.620859447075238e-32 -12.345549816600606 -6.806287521189432 -22.43128246770388 10.099398210365544 -3.7858717307059973 0.5336267802098701 -89.705096633906 69.73419595246895 81.15386671599471 1.5902773407317584e-15 -3.310429723537619e-32 -2.3854160110976376e-15
-10.947930335998535 -4.784875869750977 -380.6593017578125 0.13609568598645386 14.040156475427038 166.1004758829693 0.4125180215440891 -1.924745931507979 0.01149476311510947 2.8916477695209673e-07 -2.744935747669649e-06 -3.4383597064200364 -83.19114914211318 -28.817558665851198 -1.7225459432920203 3.998731170252956e-06 -1.830719253082922e-06 15.790694583289884 179.9999984937558 -18.691247052344153 -169.65119095903228 -6.3611093629270335e-15 8.827812596100317e-32 -1.5902773407317584e-15 78.53573682572429 -28.090574857740304 -2.934926466788853 1.3741168215082185e-06 3.5153108840068463e-06 -19.546772985580848 -1.826329501416754e-06 -44.08138080028492 -12.512591241314324 3.1805546814635168e-15 0.0 0.0 4.032954015619656 3.4130511036332067 27.351245155328346 -3.3294721722607075 -5.875339373960314 -0.52836721988792 64.97080199514669 63.492339005243714 -57.013218069592064 -3.9756933518293955e-16 0.0 0.0 -12.050656855880062 -7.607073065950605 -22.432296908773758 9.5056319724887 -3.0821867685416127 0.36420477967952564 -89.191519932442 69.51734962473972 81.9563885082469 -1.1034765745125397e-32 -6.3611093629270335e-15 -1.987846675914698e-16
